<?xml version="1.0" encoding="utf-8"?>
<svg xmlns="http://www.w3.org/2000/svg" xmlns:xlink="http://www.w3.org/1999/xlink" viewBox="0 0 22 44" height="440" width="220">
  <mask id="screen">
    <g>
      <rect x="0" y="0" width="1000" height="1000" fill="white"></rect>
      <path d="m 568.77202,236.01454 c -1.10577,-4e-5 -2.0022,0.89635 -2.00222,2.00212 v 36.26787 c -4e-5,1.10582 0.89641,2.00226 2.00222,2.00223 h 14.55556 c 1.10582,3e-5 2.00226,-0.89641 2.00223,-2.00223 v -36.26787 c -2e-5,-1.10577 -0.89646,-2.00216 -2.00223,-2.00212 h -2.35975 c -0.23399,0 -0.35501,0.0242 -0.35501,0.39535 0,0.37116 -0.22999,0.99654 -1.05301,0.99654 h -7.01986 c -0.82301,0 -1.05301,-0.62538 -1.05301,-0.99654 0,-0.37116 -0.12102,-0.39535 -0.35501,-0.39535 z" fill="black"/>
    </g>
  </mask>
<g transform="translate(-565,-234.2)" mask="url(#screen)" >
  <path d="m 585.87139,246.8619 h 0.44502 c 0.0237,0 0.0428,0.0191 0.0428,0.0428 v 4.43069 c 0,0.0237 -0.0191,0.0428 -0.0428,0.0428 h -0.44502 c -0.0237,0 -0.0428,-0.0191 -0.0428,-0.0428 v -4.43069 c 0,-0.0237 0.0191,-0.0428 0.0428,-0.0428 z" fill="black"/>
  <path d="m 565.77846,245.88822 h 0.44502 c 0.0237,0 0.0428,0.0191 0.0428,0.0428 v 2.73626 c 0,0.0237 -0.0191,0.0428 -0.0428,0.0428 h -0.44502 c -0.0237,0 -0.0428,-0.0191 -0.0428,-0.0428 v -2.73626 c 0,-0.0237 0.0191,-0.0428 0.0428,-0.0428 z" fill="black"/>
  <path d="m 565.77846,249.56958 h 0.44502 c 0.0237,0 0.0428,0.0191 0.0428,0.0428 v 2.73627 c 0,0.0237 -0.0191,0.0428 -0.0428,0.0428 h -0.44502 c -0.0237,0 -0.0428,-0.0191 -0.0428,-0.0428 v -2.73627 c 0,-0.0237 0.0191,-0.0428 0.0428,-0.0428 z" fill="black"/>
  <path fill="black" d="m 565.77845,243.09342 h 0.44503 c 0.0237,0 0.0428,0.0191 0.0428,0.0428 v 1.38073 c 0,0.0237 -0.0191,0.0428 -0.0428,0.0428 h -0.44503 c -0.0237,0 -0.0428,-0.0191 -0.0428,-0.0428 v -1.38073 c 0,-0.0237 0.0191,-0.0428 0.0428,-0.0428 z"/>
  <path id="rect2163-1-8-5" d="m 586.2544,238.09147 c 0,-1.63439 -1.31686,-2.95086 -2.95125,-2.95086 H 568.7962 c -1.63439,0 -2.95087,1.31647 -2.95087,2.95086 v 36.11848 c 0,1.63439 1.31648,2.95087 2.95087,2.95087 h 14.50695 c 1.63439,0 2.95125,-1.31648 2.95125,-2.95087 v -36.11848" fill="black"/>
</g>
</svg>
