<svg xmlns="http://www.w3.org/2000/svg" xmlns:xlink="http://www.w3.org/1999/xlink">
    <style>
    use {
      fill: #065e70;
    }
    .hover {
      fill: #f9ece0 !important;
    }
    </style>
    <symbol id="id-sbl" viewBox="0 0 24 24">
      <g transform="translate(0,3)">
        <path d="M12,12c2.21,0,4-1.79,4-4c0-2.21-1.79-4-4-4C9.79,4,8,5.79,8,8C8,10.21,9.79,12,12,12z M12,6c1.1,0,2,0.9,2,2s-0.9,2-2,2
          c-1.1,0-2-0.9-2-2S10.9,6,12,6z"/>
        <path d="M12,13c-2.67,0-8,1.34-8,4v2c0,0.55,0.45,1,1,1h14c0.55,0,1-0.45,1-1v-2C20,14.34,14.67,13,12,13z M18,18H6l0-0.99
          C6.2,16.29,9.3,15,12,15s5.8,1.29,6,2V18z"/>
      </g>
    </symbol>
    
    <symbol id="home-sbl" viewBox="0 0 72 72">
      <g transform="translate(10,10)">
        <path d="M 58.861 33.888 L 31.254 6.295 C 30.45 5.494 29.149 5.494 28.346 6.295 L 0.603 33.888 C -0.2 34.691 -0.2 35.992 0.603 36.793 C 1.405 37.597 2.708 37.597 3.51 36.793 L 29.733 10.57 L 55.954 36.793 C 56.356 37.195 56.885 37.396 57.409 37.396 S 58.463 37.199 58.862 36.793 C 59.664 35.99 59.664 34.688 58.861 33.888 Z"></path>
        <path d="M 52.981 36.244 L 31.187 14.449 C 30.8 14.064 30.277 13.847 29.734 13.847 C 29.189 13.847 28.667 14.064 28.279 14.449 L 6.483 36.244 C 6.192 36.535 5.996 36.906 5.918 37.309 C 5.857 37.621 5.827 37.94 5.827 38.248 V 48.887 C 5.827 51.625 8.056 53.856 10.796 53.856 H 48.67 C 51.408 53.856 53.639 51.627 53.639 48.887 V 38.252 C 53.639 37.94 53.609 37.623 53.547 37.312 C 53.469 36.906 53.272 36.535 52.981 36.244 Z Z"></path>
      </g>
    </symbol>
    
    <symbol id="linkedin-sbl" viewBox="0 0 448 512">
      <path d="M416 32H31.9C14.3 32 0 46.5 0 64.3v383.4C0 465.5 14.3 480 31.9 480H416c17.6 0 32-14.5 32-32.3V64.3c0-17.8-14.4-32.3-32-32.3zM135.4 416H69V202.2h66.5V416zm-33.2-243c-21.3 0-38.5-17.3-38.5-38.5S80.9 96 102.2 96c21.2 0 38.5 17.3 38.5 38.5 0 21.3-17.2 38.5-38.5 38.5zm282.1 243h-66.4V312c0-24.8-.5-56.7-34.5-56.7-34.6 0-39.9 27-39.9 54.9V416h-66.4V202.2h63.7v29.2h.9c8.9-16.8 30.6-34.5 62.9-34.5 67.2 0 79.7 44.3 79.7 101.9V416z"></path>
    </symbol>
    
    <symbol id="github-sbl" viewBox="0 0 1024 1024">
      <path d="M8 0C3.58 0 0 3.58 0 8C0 11.54 2.29 14.53 5.47 15.59C5.87 15.66 6.02 15.42 6.02 15.21C6.02 15.02 6.01 14.39 6.01 13.72C4 14.09 3.48 13.23 3.32 12.78C3.23 12.55 2.84 11.84 2.5 11.65C2.22 11.5 1.82 11.13 2.49 11.12C3.12 11.11 3.57 11.7 3.72 11.94C4.44 13.15 5.59 12.81 6.05 12.6C6.12 12.08 6.33 11.73 6.56 11.53C4.78 11.33 2.92 10.64 2.92 7.58C2.92 6.71 3.23 5.99 3.74 5.43C3.66 5.23 3.38 4.41 3.82 3.31C3.82 3.31 4.49 3.1 6.02 4.13C6.66 3.95 7.34 3.86 8.02 3.86C8.7 3.86 9.38 3.95 10.02 4.13C11.55 3.09 12.22 3.31 12.22 3.31C12.66 4.41 12.38 5.23 12.3 5.43C12.81 5.99 13.12 6.7 13.12 7.58C13.12 10.65 11.25 11.33 9.47 11.53C9.76 11.78 10.01 12.26 10.01 13.01C10.01 14.08 10 14.94 10 15.21C10 15.42 10.15 15.67 10.55 15.59C13.71 14.53 16 11.53 16 8C16 3.58 12.42 0 8 0Z" transform="scale(64)" />
    </symbol>
    
    <symbol id="email-sbl" viewBox="0 0 24 24">
      <path transform="translate(0,3)" d="M20,4H4C2.9,4,2,4.9,2,6v12c0,1.1,0.9,2,2,2h16c1.1,0,2-0.9,2-2V6C22,4.9,21.1,4,20,4z M19.6,8.25l-6.54,4.09
      c-0.65,0.41-1.47,0.41-2.12,0L4.4,8.25C4.15,8.09,4,7.82,4,7.53c0-0.67,0.73-1.07,1.3-0.72L12,11l6.7-4.19
      C19.27,6.46,20,6.86,20,7.53C20,7.82,19.85,8.09,19.6,8.25z"/>
    </symbol>
    
    <symbol id="tw-sbl" viewBox="0 0 512 512">
      <path transform="translate(0,30)" d="M459.37 151.716c.325 4.548.325 9.097.325 13.645 0 138.72-105.583 298.558-298.558 298.558-59.452 0-114.68-17.219-161.137-47.106 8.447.974 16.568 1.299 25.34 1.299 49.055 0 94.213-16.568 130.274-44.832-46.132-.975-84.792-31.188-98.112-72.772 6.498.974 12.995 1.624 19.818 1.624 9.421 0 18.843-1.3 27.614-3.573-48.081-9.747-84.143-51.98-84.143-102.985v-1.299c13.969 7.797 30.214 12.67 47.431 13.319-28.264-18.843-46.781-51.005-46.781-87.391 0-19.492 5.197-37.36 14.294-52.954 51.655 63.675 129.3 105.258 216.365 109.807-1.624-7.797-2.599-15.918-2.599-24.04 0-57.828 46.782-104.934 104.934-104.934 30.213 0 57.502 12.67 76.67 33.137 23.715-4.548 46.456-13.32 66.599-25.34-7.798 24.366-24.366 44.833-46.132 57.827 21.117-2.273 41.584-8.122 60.426-16.243-14.292 20.791-32.161 39.308-52.628 54.253z"></path>
    </symbol>

    <view id="id" viewBox="0 0 24 24" />
    <view id="id-hover" viewBox="0 25 24 24" />
    <view id="home" viewBox="0 50 24 24" />
    <view id="home-hover" viewBox="0 75 24 24" />
    <view id="linkedin" viewBox="0 100 24 24" />
    <view id="linkedin-hover" viewBox="0 125 24 24" />
    <view id="github" viewBox="0 150 24 24" />
    <view id="github-hover" viewBox="0 175 24 24" />
    <view id="mail" viewBox="0 200 24 24" />
    <view id="mail-hover" viewBox="0 225 24 24" />
    <view id="tw" viewBox="0 250 24 24" />
    <view id="tw-hover" viewBox="0 275 24 24" />
    
    <use href="#id-sbl" width="24" height="24" x="0" y="0"></use>
    <use class="hover" href="#id-sbl" width="24" height="24" x="0" y="25"></use>
    
    <use href="#home-sbl" width="24" height="24" x="0" y="50"></use>
    <use class="hover" href="#home-sbl" width="24" height="24" x="0" y="75"></use>
    
    <use href="#linkedin-sbl" width="24" height="24" x="0" y="100"></use>
    <use class="hover" href="#linkedin-sbl" width="24" height="24" x="0" y="125"></use>
    
    <use href="#github-sbl" width="24" height="24" x="0" y="150"></use>
    <use class="hover" href="#github-sbl" width="24" height="24" x="0" y="175"></use>
    
    <use href="#email-sbl" width="24" height="24" x="0" y="200"></use>
    <use class="hover" href="#email-sbl" width="24" height="24" x="0" y="225"></use>
    
    <use href="#tw-sbl" width="24" height="24" x="0" y="250"></use>
    <use class="hover" href="#tw-sbl" width="24" height="24" x="0" y="275"></use>
</svg>
